<?xml version="1.0" standalone="no"?>
<!DOCTYPE svg PUBLIC "-//W3C//DTD SVG 20010904//EN"
 "http://www.w3.org/TR/2001/REC-SVG-20010904/DTD/svg10.dtd">
<svg version="1.0" xmlns="http://www.w3.org/2000/svg"
 width="980.000000pt" height="980.000000pt" viewBox="0 0 980.000000 980.000000"
 preserveAspectRatio="xMidYMid meet">
<metadata>
Created by potrace 1.11, written by Peter Selinger 2001-2013
</metadata>
<g transform="translate(0.000000,980.000000) scale(0.100000,-0.100000)"
fill="#000000" stroke="none">
<path d="M3578 8629 c-360 -39 -623 -213 -734 -487 -32 -81 -44 -170 -44 -347
0 -168 -11 -229 -61 -326 -57 -114 -159 -191 -287 -218 -37 -8 -339 -11 -985
-11 -1022 0 -1006 0 -1135 -60 -154 -72 -273 -215 -317 -380 -22 -83 -22
-4417 0 -4500 44 -165 163 -308 317 -380 127 -59 132 -60 936 -60 788 0 779
-1 816 51 22 32 21 117 -2 144 -44 53 1 50 -826 55 l-771 5 -53 28 c-69 36
-129 98 -161 167 l-26 55 -3 1498 -2 1497 924 0 925 0 -25 -67 c-274 -723
-268 -1511 16 -2223 278 -697 812 -1270 1494 -1600 432 -210 832 -302 1316
-304 501 -1 918 96 1360 315 510 254 932 637 1233 1120 475 763 585 1721 293
2569 -29 85 -56 163 -60 173 -8 16 40 17 918 17 l926 0 -2 -1497 -3 -1498 -28
-57 c-54 -109 -146 -178 -268 -198 -40 -6 -373 -10 -897 -10 l-834 0 -28 -29
c-52 -52 -52 -126 1 -177 l30 -29 865 -3 c967 -3 945 -4 1089 67 130 64 233
181 288 327 l22 59 3 2200 c2 1596 0 2216 -8 2260 -32 168 -160 329 -322 405
-129 60 -113 60 -1135 60 -646 0 -948 3 -985 11 -166 35 -283 155 -328 334 -7
28 -16 145 -20 260 -8 241 -16 272 -101 399 -120 180 -325 312 -574 369 -88
21 -112 21 -1380 23 -709 1 -1325 -2 -1367 -7z m2569 -239 c133 -12 210 -32
313 -83 107 -52 222 -161 266 -252 28 -59 29 -65 35 -270 5 -145 12 -228 23
-269 46 -165 133 -304 240 -383 72 -54 109 -73 196 -104 l65 -24 995 -5 c673
-4 1005 -9 1025 -17 105 -37 181 -103 224 -193 l26 -55 3 -567 3 -568 -983 0
-983 0 -45 82 c-126 229 -306 465 -510 668 -243 243 -491 421 -795 570 -450
221 -845 313 -1345 313 -500 0 -895 -92 -1345 -313 -556 -273 -1020 -717
-1316 -1257 l-34 -63 -983 0 -982 0 2 568 3 567 27 57 c51 109 150 181 273
199 33 5 475 9 983 9 814 0 932 2 995 16 251 57 428 238 497 508 16 62 20 112
20 230 0 187 10 257 47 332 35 74 122 161 204 207 85 47 222 86 339 96 133 11
2393 12 2517 1z m-962 -1411 c443 -43 898 -208 1270 -459 311 -210 625 -536
820 -850 214 -347 353 -745 400 -1149 19 -162 19 -480 0 -642 -58 -498 -241
-950 -553 -1369 -113 -152 -381 -419 -533 -533 -416 -310 -868 -493 -1368
-553 -163 -19 -479 -19 -642 0 -502 60 -971 251 -1380 561 -145 111 -414 382
-525 530 -306 409 -491 869 -549 1364 -19 162 -19 480 0 642 58 495 242 954
549 1364 109 146 380 419 521 526 585 444 1267 638 1990 568z"/>
<path d="M4636 6289 c-308 -40 -631 -159 -886 -326 -512 -336 -849 -868 -935
-1475 -19 -135 -19 -441 0 -576 113 -796 661 -1455 1419 -1707 229 -76 410
-105 666 -105 257 0 437 28 670 106 614 204 1107 692 1318 1304 81 235 112
428 112 690 0 342 -65 628 -210 925 -311 639 -927 1076 -1640 1165 -99 12
-415 11 -514 -1z m572 -253 c390 -73 701 -231 976 -496 259 -249 429 -536 516
-872 218 -836 -171 -1709 -941 -2116 -171 -91 -369 -157 -579 -194 -100 -17
-460 -17 -560 1 -404 71 -723 231 -1004 501 -259 250 -430 539 -515 872 -49
187 -56 249 -56 468 0 219 7 281 56 468 135 529 515 984 1019 1220 165 77 361
134 560 162 97 13 430 5 528 -14z"/>
<path d="M945 8156 c-93 -30 -167 -92 -213 -181 -26 -48 -27 -56 -30 -248 l-4
-197 30 -29 c58 -58 150 -48 192 21 17 29 20 51 20 176 0 162 8 189 64 216 30
14 91 16 519 16 l484 0 34 -23 c48 -32 58 -70 58 -235 l1 -144 28 -28 c58 -57
149 -47 193 22 18 31 20 46 17 208 -3 165 -5 178 -29 231 -36 76 -86 129 -161
170 l-63 34 -550 2 c-424 2 -559 -1 -590 -11z"/>
</g>
</svg>
